<?xml version="1.0" encoding="utf-8"?>
<!-- Generator: Adobe Illustrator 22.1.0, SVG Export Plug-In . SVG Version: 6.00 Build 0)  -->
<svg version="1.1" id="Capa_1" xmlns="http://www.w3.org/2000/svg" xmlns:xlink="http://www.w3.org/1999/xlink" x="0px" y="0px"
	 viewBox="0 0 448 150" style="enable-background:new 0 0 448 150;" xml:space="preserve">
<style type="text/css">
	.st0{fill:#FFFFFF;}
	.st1{display:none;}
	.st2{display:inline;}
</style>
<g id="Capa_1_1_">
	<g>
		<g>
			<path class="st0" d="M390,63.3c-5.6,3.2-8.6,9.4-7.8,15.8h-9.6c-0.8-11.1,6.5-22.2,17.5-26.2L390,63.3z"/>
			<path class="st0" d="M83.8,76.3c0,14.1-11.5,25.6-25.6,25.6S32.6,90.5,32.6,76.3c0-14.1,11.4-25.6,25.6-25.6
				C72.3,50.8,83.8,62.2,83.8,76.3z M74.1,76.3c0-8.8-7.2-16-15.9-16c-8.8,0-16,7.2-16,16s7.2,15.9,16,15.9
				C67,92.3,74.1,85.1,74.1,76.3z"/>
			<path class="st0" d="M91.9,101.9V51.3h9.6v5.2c4.3-3.5,9.9-5.6,16-5.6v9.6c-8.8,0-16,7.1-16,15.9v25.5H91.9z"/>
			<path class="st0" d="M223.5,43.4c-3.6,0-6.5-3-6.5-6.5c0-3.6,3-6.5,6.5-6.5c3.6,0,6.5,3,6.5,6.5C230,40.5,227,43.4,223.5,43.4z
				 M218.6,51.4h9.6v50.5h-9.6V51.4z"/>
			<path class="st0" d="M390,101.7c-5.6-0.9-9.9-5.3-13-9.8c-4.7,6.2-12.1,10-20.3,10c-14.1,0-25.6-11.4-25.6-25.7
				c0-14.1,11.4-25.5,25.6-25.5s25.5,11.3,25.5,25.5v2.1c0,5.7,3.2,11.2,7.9,13.7v9.7C390.1,101.7,390,101.7,390,101.7z M356.7,60.5
				c-8.9,0-15.9,7-15.9,15.7c0,8.9,7.1,16,15.9,16c8.9,0,15.9-7.2,15.9-16C372.5,67.4,365.6,60.5,356.7,60.5z"/>
			<g>
				<g>
					<path class="st0" d="M118.6,77.2c0-14.1,11.5-25.6,25.6-25.6c8.6,0,16.2,4.2,20.8,10.6c4.7-6.4,12.3-10.6,20.8-10.6
						c14.1,0,25.6,11.4,25.6,25.6V102h-9.6V77.2c0-8.8-7.2-16-16-16s-16,7.2-15.9,16V102h-9.6V77.2c0-8.8-7.2-16-15.9-16
						c-8.8,0-15.9,7.2-15.9,16V102h-9.6V77.2H118.6z"/>
				</g>
			</g>
			<path class="st0" d="M245.6,115"/>
			<g>
				<path class="st0" d="M276.8,112.5c0.1-0.3-0.5-2-0.5-2c-2.5-4.7-8-7.9-13.7-7.9h-2.1c-14.1,0-25.5-11.2-25.5-25.5
					c0-14.1,11.3-25.6,25.5-25.6c14.2,0,25.7,11.4,25.7,25.6c0,8.3-3.8,15.6-10,20.3c4.5,3.1,8.9,7.4,9.8,13L276.8,112.5z
					 M260.4,93.1c8.9,0,16.1-7,16.1-15.8c0-8.9-7.2-15.9-16.1-15.9c-8.8,0-15.7,7.1-15.7,15.9S251.6,93.1,260.4,93.1z"/>
				<path class="st0" d="M274.5,135.5c2.9-1.4,5.3-3.3,7.3-5.7c6.5-7.9,4.7-17.8,4.6-18.2l-9.3,1.7c0,0.1,1,6.1-2.7,10.5
					c-1.1,1.3-2.5,2.3-4.1,3.1L274.5,135.5z"/>
			</g>
			<g>
				<path class="st0" d="M321.8,112.5c0.1-0.3-0.5-2-0.5-2c-2.5-4.7-8-7.9-13.7-7.9h-2.1c-14.1,0-25.5-11.2-25.5-25.5
					c0-14.1,11.3-25.6,25.5-25.6s25.7,11.4,25.7,25.6c0,8.3-3.8,15.6-10,20.3c4.5,3.1,8.9,7.4,9.8,13L321.8,112.5z M305.4,93.1
					c8.9,0,16.1-7,16.1-15.8c0-8.9-7.2-15.9-16.1-15.9c-8.8,0-15.7,7.1-15.7,15.9C289.6,86.1,296.6,93.1,305.4,93.1z"/>
				<path class="st0" d="M319.4,135.5c2.9-1.4,5.3-3.3,7.3-5.7c6.5-7.9,4.7-17.8,4.6-18.2l-9.3,1.7c0,0.1,1,6.1-2.7,10.5
					c-1.1,1.3-2.5,2.3-4.1,3.1L319.4,135.5z"/>
			</g>
		</g>
		<g>
			<g>
				<path class="st0" d="M405.8,42.7V32.1h4.5c1.1,0,2,0.1,2.5,0.3s0.9,0.5,1.2,1c0.3,0.5,0.5,1,0.5,1.7c0,0.8-0.2,1.5-0.7,2
					s-1.2,0.8-2.1,1c0.5,0.3,0.8,0.6,1.1,0.9c0.3,0.3,0.7,0.9,1.2,1.7l1.3,2.1h-2.6l-1.5-2.3c-0.5-0.8-0.9-1.3-1.1-1.6
					c-0.2-0.2-0.4-0.4-0.6-0.4c-0.2-0.1-0.6-0.1-1.1-0.1H408v4.4h-2.2V42.7z M407.9,36.6h1.6c1,0,1.7,0,1.9-0.1
					c0.3-0.1,0.5-0.2,0.6-0.4s0.2-0.5,0.2-0.8c0-0.4-0.1-0.6-0.3-0.9c-0.2-0.2-0.5-0.4-0.8-0.4c-0.2,0-0.7,0-1.6,0h-1.7L407.9,36.6
					L407.9,36.6z"/>
			</g>
			<path class="st0" d="M419.4,37.8c0,5.2-4.2,9.4-9.4,9.4c-5.2,0-9.4-4.2-9.4-9.4s4.2-9.4,9.4-9.4
				C415.2,28.4,419.4,32.6,419.4,37.8z M410,45.7c4.4,0,7.9-3.5,7.9-7.9s-3.5-7.9-7.9-7.9s-7.9,3.5-7.9,7.9S405.6,45.7,410,45.7
				L410,45.7z"/>
		</g>
	</g>
</g>
<g id="Capa_2_1_" class="st1">
	<g class="st2">
		<g>
			<path class="st0" d="M388,64.5c-5.6,3.2-8.6,9.4-7.8,15.8h-9.6c-0.8-11.1,6.5-22.2,17.5-26.2L388,64.5z"/>
			<path class="st0" d="M81.8,77.6c0,14.1-11.5,25.6-25.6,25.6S30.6,91.8,30.6,77.6C30.6,63.5,42,52,56.2,52
				C70.3,52,81.8,63.5,81.8,77.6z M72.1,77.6c0-8.8-7.2-16-15.9-16c-8.8,0-16,7.2-16,16s7.2,15.9,16,15.9
				C65,93.6,72.1,86.3,72.1,77.6z"/>
			<path class="st0" d="M89.9,103.2V52.5h9.6v5.2c4.3-3.5,9.9-5.6,16-5.6v9.6c-8.8,0-16,7.1-16,15.9v25.5L89.9,103.2L89.9,103.2z"/>
			<path class="st0" d="M221.5,44.7c-3.6,0-6.5-3-6.5-6.5c0-3.6,3-6.5,6.5-6.5c3.6,0,6.5,3,6.5,6.5C228,41.8,225,44.7,221.5,44.7z
				 M216.6,52.7h9.6v50.5h-9.6V52.7z"/>
			<path class="st0" d="M388,102.9c-5.6-0.9-9.9-5.3-13-9.8c-4.7,6.2-12.1,10-20.3,10c-14.1,0-25.6-11.4-25.6-25.7
				c0-14.1,11.4-25.5,25.6-25.5s25.5,11.3,25.5,25.5v2.1c0,5.7,3.2,11.2,7.9,13.7v9.7L388,102.9L388,102.9z M354.7,61.8
				c-8.9,0-15.9,7-15.9,15.7c0,8.9,7.1,16,15.9,16c8.9,0,15.9-7.2,15.9-16C370.5,68.7,363.6,61.8,354.7,61.8z"/>
			<g>
				<g>
					<path class="st0" d="M116.6,78.4c0-14.1,11.5-25.6,25.6-25.6c8.6,0,16.2,4.2,20.8,10.6c4.7-6.4,12.3-10.6,20.8-10.6
						c14.1,0,25.6,11.4,25.6,25.6v24.8h-9.6V78.4c0-8.8-7.2-16-16-16s-16,7.2-15.9,16v24.8h-9.6V78.4c0-8.8-7.2-16-15.9-16
						c-8.8,0-15.9,7.2-15.9,16v24.8h-9.6V78.4H116.6z"/>
				</g>
			</g>
			<path class="st0" d="M243.6,116.3"/>
			<g>
				<path class="st0" d="M274.8,113.8c0.1-0.3-0.5-2-0.5-2c-2.5-4.7-8-7.9-13.7-7.9h-2.1c-14.1,0-25.5-11.2-25.5-25.5
					c0-14.1,11.3-25.6,25.5-25.6c14.2,0,25.7,11.4,25.7,25.6c0,8.3-3.8,15.6-10,20.3c4.5,3.1,8.9,7.4,9.8,13L274.8,113.8z
					 M258.4,94.3c8.9,0,16.1-7,16.1-15.8c0-8.9-7.2-15.9-16.1-15.9c-8.8,0-15.7,7.1-15.7,15.9S249.6,94.3,258.4,94.3z"/>
				<path class="st0" d="M272.5,136.8c2.9-1.4,5.3-3.3,7.3-5.7c6.5-7.9,4.7-17.8,4.6-18.2l-9.3,1.7c0,0.1,1,6.1-2.7,10.5
					c-1.1,1.3-2.5,2.3-4.1,3.1L272.5,136.8z"/>
			</g>
			<g>
				<path class="st0" d="M319.8,113.8c0.1-0.3-0.5-2-0.5-2c-2.5-4.7-8-7.9-13.7-7.9h-2.1c-14.1,0-25.5-11.2-25.5-25.5
					c0-14.1,11.3-25.6,25.5-25.6s25.7,11.4,25.7,25.6c0,8.3-3.8,15.6-10,20.3c4.5,3.1,8.9,7.4,9.8,13L319.8,113.8z M303.4,94.3
					c8.9,0,16.1-7,16.1-15.8c0-8.9-7.2-15.9-16.1-15.9c-8.8,0-15.7,7.1-15.7,15.9C287.6,87.3,294.6,94.3,303.4,94.3z"/>
				<path class="st0" d="M317.4,136.8c2.9-1.4,5.3-3.3,7.3-5.7c6.5-7.9,4.7-17.8,4.6-18.2l-9.3,1.7c0,0.1,1,6.1-2.7,10.5
					c-1.1,1.3-2.5,2.3-4.1,3.1L317.4,136.8z"/>
			</g>
		</g>
		<g>
			<g>
				<path class="st0" d="M403.8,44V33.3h4.5c1.1,0,2,0.1,2.5,0.3s0.9,0.5,1.2,1c0.3,0.5,0.5,1,0.5,1.7c0,0.8-0.2,1.5-0.7,2
					s-1.2,0.8-2.1,1c0.5,0.3,0.8,0.6,1.1,0.9c0.3,0.3,0.7,0.9,1.2,1.7l1.3,2.1h-2.6l-1.5-2.3c-0.5-0.8-0.9-1.3-1.1-1.6
					c-0.2-0.2-0.4-0.4-0.6-0.4c-0.2-0.1-0.6-0.1-1.1-0.1H406V44L403.8,44L403.8,44z M405.9,37.8h1.6c1,0,1.7,0,1.9-0.1
					c0.3-0.1,0.5-0.2,0.6-0.4s0.2-0.5,0.2-0.8c0-0.4-0.1-0.6-0.3-0.9c-0.2-0.2-0.5-0.4-0.8-0.4c-0.2,0-0.7,0-1.6,0h-1.7L405.9,37.8
					L405.9,37.8z"/>
			</g>
			<path class="st0" d="M417.4,39c0,5.2-4.2,9.4-9.4,9.4c-5.2,0-9.4-4.2-9.4-9.4s4.2-9.4,9.4-9.4C413.2,29.6,417.4,33.8,417.4,39z
				 M408,47c4.4,0,7.9-3.5,7.9-7.9s-3.5-7.9-7.9-7.9s-7.9,3.5-7.9,7.9S403.6,47,408,47L408,47z"/>
		</g>
	</g>
</g>
</svg>
